<svg xmlns="http://www.w3.org/2000/svg" version="1.1" xmlns:xlink="http://www.w3.org/1999/xlink" xmlns:svgjs="http://svgjs.dev/svgjs" width="1500" height="844" viewBox="0 0 1500 844"><g transform="matrix(1,0,0,1,-0.9090909090909918,-0.48312296843272406)"><svg viewBox="0 0 396 223" data-background-color="#ffffff" preserveAspectRatio="xMidYMid meet" height="844" width="1500" xmlns="http://www.w3.org/2000/svg" xmlns:xlink="http://www.w3.org/1999/xlink"><g id="tight-bounds" transform="matrix(1,0,0,1,0.2400000000000091,0.12764978905272528)"><svg viewBox="0 0 395.52 222.74470042189455" height="222.74470042189455" width="395.52"><g><svg viewBox="0 0 395.52 222.74470042189455" height="222.74470042189455" width="395.52"><g transform="matrix(1,0,0,1,0,137.66516093492223)"><svg viewBox="0 0 395.52 85.07953948697232" height="85.07953948697232" width="395.52"><g id="textblocktransform"><svg viewBox="0 0 395.52 85.07953948697232" height="85.07953948697232" width="395.52" id="textblock"><g><svg viewBox="0 0 395.52 85.07953948697232" height="85.07953948697232" width="395.52"><g transform="matrix(1,0,0,1,0,0)"><svg width="395.52" viewBox="-6.85 -40.25 247.53 53.25" height="85.07953948697232" data-palette-color="#ff5858"><path d="M10.65-27L10.65 0.1Q10.65 6.35 8.03 9.68 5.4 13 0.4 13L0.4 13Q-2.8 13-4.83 11.73-6.85 10.45-6.85 8.35L-6.85 8.35Q-6.85 7.2-6.18 6.6-5.5 6-4.3 6L-4.3 6Q-3.4 6-2.93 6.43-2.45 6.85-1.7 8.35L-1.7 8.35Q-1 9.85-0.4 10.35 0.2 10.85 1.45 10.85L1.45 10.85Q3.85 10.85 4.8 9.2 5.75 7.55 5.75 3.4L5.75 3.4 5.75-14Q5.75-16.9 5.68-18.78 5.6-20.65 5.4-21.35L5.4-21.35Q5.15-22.5 4.25-22.93 3.35-23.35 0.85-23.35L0.85-23.35 0.85-25.1 10.65-27ZM5-37.15L5-37.15Q5-38.45 5.9-39.35 6.8-40.25 8.1-40.25L8.1-40.25Q9.4-40.25 10.3-39.35 11.2-38.45 11.2-37.15L11.2-37.15Q11.2-35.85 10.3-34.95 9.4-34.05 8.1-34.05L8.1-34.05Q6.8-34.05 5.9-34.95 5-35.85 5-37.15ZM31.45-27L31.45-27Q34.3-27 36.85-25.98 39.4-24.95 41.32-23.15 43.25-21.35 44.37-18.88 45.5-16.4 45.5-13.45L45.5-13.45Q45.5-10.4 44.37-7.85 43.25-5.3 41.32-3.45 39.4-1.6 36.85-0.55 34.3 0.5 31.45 0.5L31.45 0.5Q28.65 0.5 26.12-0.53 23.6-1.55 21.7-3.4 19.8-5.25 18.7-7.83 17.6-10.4 17.6-13.45L17.6-13.45Q17.6-16.4 18.7-18.9 19.8-21.4 21.7-23.2 23.6-25 26.12-26 28.65-27 31.45-27ZM31.45-24.6L31.45-24.6Q29.6-24.6 28.07-23.8 26.55-23 25.47-21.53 24.4-20.05 23.82-17.98 23.25-15.9 23.25-13.4L23.25-13.4Q23.25-10.8 23.82-8.7 24.4-6.6 25.47-5.13 26.55-3.65 28.05-2.85 29.55-2.05 31.45-2.05L31.45-2.05Q33.35-2.05 34.9-2.85 36.45-3.65 37.55-5.15 38.65-6.65 39.25-8.75 39.85-10.85 39.85-13.4L39.85-13.4Q39.85-15.9 39.25-17.95 38.65-20 37.55-21.48 36.45-22.95 34.9-23.78 33.35-24.6 31.45-24.6ZM52.9-23.35L49.9-23.35 49.9-25.2Q52.55-26.75 54.05-28.3 55.55-29.85 56.35-32L56.35-32 57.8-32 57.8-25.7 64.5-25.7 64.5-23.35 57.8-23.35 57.8-8.15Q57.8-6.4 57.97-5.2 58.15-4 58.55-3.28 58.95-2.55 59.6-2.25 60.25-1.95 61.25-1.95L61.25-1.95Q62.5-1.95 63.37-2.48 64.25-3 65.1-4.25L65.1-4.25 66.35-3.3Q65.65-1.45 63.92-0.48 62.2 0.5 59.65 0.5L59.65 0.5Q56.35 0.5 54.62-1.07 52.9-2.65 52.9-5.6L52.9-5.6 52.9-23.35ZM72.09-1.75L71.09 0 69.99 0 69.99-8.6 71.24-8.6Q73.19-1.55 78.34-1.55L78.34-1.55Q80.34-1.55 81.52-2.53 82.69-3.5 82.69-5.5L82.69-5.5Q82.69-6.25 82.47-6.78 82.24-7.3 81.62-7.88 80.99-8.45 79.87-9.2 78.74-9.95 76.89-11.1L76.89-11.1Q75.19-12.15 73.94-13.05 72.69-13.95 71.84-14.88 70.99-15.8 70.57-16.85 70.14-17.9 70.14-19.3L70.14-19.3Q70.14-21 70.72-22.43 71.29-23.85 72.29-24.85 73.29-25.85 74.64-26.43 75.99-27 77.59-27L77.59-27Q78.94-27 80.39-26.58 81.84-26.15 82.94-25.45L82.94-25.45 83.94-26.5 84.89-26.5 84.89-19.3 83.59-19.3Q82.49-22.35 81.19-23.65 79.89-24.95 77.99-24.95L77.99-24.95Q76.29-24.95 75.27-24.05 74.24-23.15 74.24-21.55L74.24-21.55Q74.24-20.7 74.52-20.08 74.79-19.45 75.39-18.85 75.99-18.25 76.92-17.63 77.84-17 79.14-16.2L79.14-16.2Q81.29-14.85 82.82-13.8 84.34-12.75 85.29-11.73 86.24-10.7 86.69-9.6 87.14-8.5 87.14-7.1L87.14-7.1Q87.14-3.55 84.84-1.53 82.54 0.5 78.79 0.5L78.79 0.5Q74.89 0.5 72.09-1.75L72.09-1.75ZM94.49-23.35L91.49-23.35 91.49-25.2Q94.14-26.75 95.64-28.3 97.14-29.85 97.94-32L97.94-32 99.39-32 99.39-25.7 106.09-25.7 106.09-23.35 99.39-23.35 99.39-8.15Q99.39-6.4 99.57-5.2 99.74-4 100.14-3.28 100.54-2.55 101.19-2.25 101.84-1.95 102.84-1.95L102.84-1.95Q104.09-1.95 104.97-2.48 105.84-3 106.69-4.25L106.69-4.25 107.94-3.3Q107.24-1.45 105.52-0.48 103.79 0.5 101.24 0.5L101.24 0.5Q97.94 0.5 96.22-1.07 94.49-2.65 94.49-5.6L94.49-5.6 94.49-23.35ZM119.49-9.65L119.49-7.95Q119.49-5.9 119.59-4.7 119.69-3.5 120.11-2.88 120.54-2.25 121.34-2.05 122.14-1.85 123.59-1.75L123.59-1.75 123.59 0 110.29 0 110.29-1.75Q111.74-1.8 112.59-2.02 113.44-2.25 113.89-2.85 114.34-3.45 114.46-4.58 114.59-5.7 114.59-7.6L114.59-7.6 114.59-13.45Q114.59-16.85 114.51-18.75 114.44-20.65 114.01-21.55 113.59-22.45 112.69-22.63 111.79-22.8 110.19-22.8L110.19-22.8 110.19-24.55 118.94-26.45 119.64-20.25 119.84-20.25Q120.49-21.75 121.46-23 122.44-24.25 123.59-25.13 124.74-26 125.99-26.5 127.24-27 128.54-27L128.54-27Q130.14-27 131.06-26.23 131.99-25.45 131.99-24.15L131.99-24.15Q131.99-22.95 131.24-22.28 130.49-21.6 129.09-21.6L129.09-21.6Q128.29-21.6 127.74-21.8 127.19-22 126.76-22.23 126.34-22.45 125.96-22.65 125.59-22.85 125.14-22.85L125.14-22.85Q123.79-22.85 122.44-21.13 121.09-19.4 120.34-16.75L120.34-16.75Q119.94-15.3 119.71-13.48 119.49-11.65 119.49-9.65L119.49-9.65ZM156.24-6.05L157.79-4.65Q153.54 0.5 147.24 0.5L147.24 0.5Q144.29 0.5 141.89-0.48 139.49-1.45 137.76-3.23 136.04-5 135.09-7.48 134.14-9.95 134.14-12.95L134.14-12.95Q134.14-16 135.14-18.6 136.14-21.2 137.96-23.05 139.79-24.9 142.31-25.95 144.84-27 147.84-27L147.84-27Q152.69-27 155.34-24.38 157.99-21.75 157.99-16.85L157.99-16.85Q157.99-16.15 157.71-16 157.44-15.85 156.44-15.85L156.44-15.85 139.99-15.85Q139.89-15.45 139.84-14.88 139.79-14.3 139.79-13.6L139.79-13.6Q139.79-11 140.41-8.88 141.04-6.75 142.21-5.25 143.39-3.75 145.01-2.93 146.64-2.1 148.64-2.1L148.64-2.1Q150.74-2.1 152.54-3.03 154.34-3.95 156.24-6.05L156.24-6.05ZM140.34-18.15L149.54-18.15Q150.54-18.15 151.14-18.2 151.74-18.25 152.04-18.4 152.34-18.55 152.44-18.82 152.54-19.1 152.54-19.55L152.54-19.55Q152.54-21.85 151.06-23.23 149.59-24.6 147.04-24.6L147.04-24.6Q141.64-24.6 140.34-18.15L140.34-18.15ZM177.78-10.85L177.78-14.8Q174.93-13.7 172.96-12.65 170.98-11.6 169.78-10.55 168.58-9.5 168.06-8.45 167.53-7.4 167.53-6.3L167.53-6.3Q167.53-4.65 168.63-3.6 169.73-2.55 171.53-2.55L171.53-2.55Q172.83-2.55 173.96-3.2 175.08-3.85 175.93-4.98 176.78-6.1 177.28-7.63 177.78-9.15 177.78-10.85L177.78-10.85ZM170.58-13.8L177.78-16.95 177.78-19Q177.78-25.1 172.58-25.1L172.58-25.1Q171.73-25.1 171.13-24.95 170.53-24.8 170.13-24.45 169.73-24.1 169.41-23.45 169.08-22.8 168.78-21.85L168.78-21.85Q168.23-20.4 167.71-19.93 167.18-19.45 166.18-19.45L166.18-19.45Q163.68-19.45 163.68-21.95L163.68-21.95Q163.68-24.35 166.23-25.68 168.78-27 173.48-27L173.48-27Q178.48-27 180.58-25.23 182.68-23.45 182.68-19.2L182.68-19.2 182.68-8Q182.68-2.3 184.93-2.3L184.93-2.3Q185.63-2.3 186.28-2.48 186.93-2.65 187.38-3.4L187.38-3.4 188.08-2.2Q187.48-1.05 185.88-0.28 184.28 0.5 182.53 0.5L182.53 0.5Q180.33 0.5 179.26-0.9 178.18-2.3 178.18-4.85L178.18-4.85 177.93-4.85Q176.63-2.4 174.33-0.98 172.03 0.45 169.23 0.45L169.23 0.45Q166.08 0.45 164.28-1.15 162.48-2.75 162.48-5.45L162.48-5.45Q162.48-6.65 162.91-7.75 163.33-8.85 164.28-9.85 165.23-10.85 166.78-11.83 168.33-12.8 170.58-13.8L170.58-13.8ZM199.08-14.35L199.08-8Q199.08-5.9 199.18-4.7 199.28-3.5 199.71-2.88 200.13-2.25 200.93-2.05 201.73-1.85 203.18-1.75L203.18-1.75 203.18 0 189.88 0 189.88-1.75Q191.33-1.85 192.18-2.05 193.03-2.25 193.48-2.85 193.93-3.45 194.06-4.58 194.18-5.7 194.18-7.6L194.18-7.6 194.18-14Q194.18-16.85 194.11-18.75 194.03-20.65 193.83-21.35L193.83-21.35Q193.68-22 193.48-22.38 193.28-22.75 192.83-22.98 192.38-23.2 191.66-23.28 190.93-23.35 189.78-23.35L189.78-23.35 189.78-25.1 197.93-27 198.58-22 198.83-22Q201.08-24.55 203.56-25.78 206.03-27 209.03-27L209.03-27Q212.18-27 214.33-25.73 216.48-24.45 217.33-22.05L217.33-22.05 217.53-22.05Q219.38-24.4 222.03-25.7 224.68-27 227.68-27L227.68-27Q230.03-27 231.96-26.23 233.88-25.45 234.88-24.1L234.88-24.1Q235.78-22.95 236.16-21.08 236.53-19.2 236.53-15.95L236.53-15.95 236.53-8Q236.53-5.95 236.66-4.75 236.78-3.55 237.18-2.9 237.58-2.25 238.41-2.05 239.23-1.85 240.68-1.75L240.68-1.75 240.68 0 227.38 0 227.38-1.75Q228.78-1.8 229.63-2.02 230.48-2.25 230.93-2.88 231.38-3.5 231.51-4.6 231.63-5.7 231.63-7.6L231.63-7.6 231.63-13.9Q231.63-16.75 231.33-18.73 231.03-20.7 230.33-21.93 229.63-23.15 228.51-23.7 227.38-24.25 225.78-24.25L225.78-24.25Q223.58-24.25 221.66-23.03 219.73-21.8 218.63-19.75L218.63-19.75Q218.38-19.25 218.21-18.78 218.03-18.3 217.93-17.73 217.83-17.15 217.81-16.35 217.78-15.55 217.78-14.35L217.78-14.35 217.78-8Q217.78-5.95 217.88-4.75 217.98-3.55 218.41-2.9 218.83-2.25 219.68-2.05 220.53-1.85 221.98-1.75L221.98-1.75 221.98 0 208.68 0 208.68-1.75Q210.08-1.85 210.93-2.05 211.78-2.25 212.21-2.85 212.63-3.45 212.76-4.58 212.88-5.7 212.88-7.6L212.88-7.6 212.88-13.9Q212.88-16.8 212.58-18.78 212.28-20.75 211.61-21.98 210.93-23.2 209.83-23.73 208.73-24.25 207.13-24.25L207.13-24.25Q204.88-24.25 202.91-23.03 200.93-21.8 199.93-19.75L199.93-19.75Q199.68-19.25 199.51-18.78 199.33-18.3 199.23-17.73 199.13-17.15 199.11-16.35 199.08-15.55 199.08-14.35L199.08-14.35Z" opacity="1" transform="matrix(1,0,0,1,0,0)" fill="#ff5858" class="wordmark-text-0" data-fill-palette-color="primary" id="text-0"></path></svg></g></svg></g></svg></g></svg></g><g transform="matrix(1,0,0,1,138.97003821450213,0)"><svg viewBox="0 0 117.57992357099575 117.57992357099576" height="117.57992357099576" width="117.57992357099575"><g><svg></svg></g><g id="icon-0"><svg viewBox="0 0 117.57992357099575 117.57992357099576" height="117.57992357099576" width="117.57992357099575"><g><path transform="scale(1.1758,1.1758)" d="M30 100c-16.569 0-30-13.431-30-30v-40c0-16.569 13.431-30 30-30h40c16.569 0 30 13.431 30 30v40c0 16.569-13.431 30-30 30z" fill="#ff5858" fill-rule="nonzero" stroke="none" stroke-width="1" stroke-linecap="butt" stroke-linejoin="miter" stroke-miterlimit="10" stroke-dasharray="" stroke-dashoffset="0" font-family="none" font-weight="none" font-size="none" text-anchor="none" style="mix-blend-mode: normal" data-fill-palette-color="accent"></path></g><g transform="matrix(1,0,0,1,23.51598471419915,30.420258193588847)"><svg viewBox="0 0 70.54795414259745 56.73940718381807" height="56.73940718381807" width="70.54795414259745"><g><svg xmlns="http://www.w3.org/2000/svg" xmlns:xlink="http://www.w3.org/1999/xlink" version="1.1" x="0" y="0" viewBox="0 9.786 100.00034525290005 80.42699999999999" enable-background="new 0 0 100 100" xml:space="preserve" id="dxe-0" width="70.54795414259745" height="56.73940718381807" class="icon-dxe-0" data-fill-palette-color="quaternary"><path d="M49.942 52.994L90.595 51.529C88.068 47.352 87.436 43.698 82.606 43.068 75.377 42.128 68.148 41.185 60.918 40.242L18.843 34.762C20.101 36.792 39.724 53.361 49.942 52.994" fill="#ffffff" data-fill-palette-color="quaternary"></path><path d="M0 9.786C4.391 17.043 26.615 32.858 32.953 33.672 50.283 35.903 67.61 38.132 84.939 40.36 81.546 34.753 80.759 31.01 74.627 29.401L47.91 22.378C31.94 18.182 15.97 13.984 0 9.786" fill="#ffffff" data-fill-palette-color="quaternary"></path><path d="M63.108 66.207L94.349 59.547C92.321 56.201 92.315 54.188 88.522 54.358 82.364 54.631 76.208 54.907 70.051 55.18 58.708 55.686 47.365 56.194 36.023 56.698 37.298 58.064 54.94 67.947 63.108 66.207" fill="#ffffff" data-fill-palette-color="quaternary"></path><path d="M87.682 90.213C93.407 86.494 94.944 82.492 98.201 76.406 101.852 69.582 99.458 68.562 95.38 61.81 94.963 61.122 89.538 62.042 88.927 62.714 88.182 63.532 88.679 68.169 88.633 69.21z" fill="#ffffff" data-fill-palette-color="quaternary"></path><path d="M86.35 63.447C82.555 64.256 77.746 63.638 76.778 67.676L72.658 84.887C81.904 82.678 86.028 71.582 86.35 63.447" fill="#ffffff" data-fill-palette-color="quaternary"></path><path d="M74.666 66.121C65.518 68.074 65.71 70.732 61.787 79.301 68.007 78.711 73.811 71.941 74.666 66.121" fill="#ffffff" data-fill-palette-color="quaternary"></path></svg></g></svg></g></svg></g></svg></g><g></g></svg></g><defs></defs></svg><rect width="395.52" height="222.74470042189455" fill="none" stroke="none" visibility="hidden"></rect></g></svg></g></svg>